<svg width="237" height="31" viewBox="0 0 237 31" xmlns="http://www.w3.org/2000/svg" xmlns:xlink="http://www.w3.org/1999/xlink"><title>Page 1</title><defs><path id="a" d="M0 .404h236.759V31H0"/></defs><g fill="none" fill-rule="evenodd"><path d="M0 31h30V0H0v31z" fill="#FFF"/><path d="M29.113 3.986V1.475H1.054V29.93H3.53c0-14.328 11.453-25.945 25.583-25.945" fill="#231F1F"/><path d="M29.113 5.102V3.986C14.983 3.986 3.53 15.603 3.53 29.93h1.1C4.63 16.218 15.592 5.1 29.113 5.1" fill="#FFF"/><path d="M29.113 12.634V5.101c-13.521 0-24.482 11.117-24.482 24.83h7.427c0-9.552 7.636-17.297 17.055-17.297" fill="#F37920"/><path d="M12.058 29.931h1.1c0-8.936 7.143-16.18 15.954-16.18v-1.116c-9.418 0-17.054 7.743-17.054 17.296" fill="#FFF"/><path d="M29.113 21.283V13.75c-8.811 0-15.954 7.244-15.954 16.182h7.426c0-4.777 3.818-8.65 8.528-8.65" fill="#B3B20F"/><path d="M29.113 22.399v-1.116c-4.71 0-8.528 3.872-8.528 8.649h1.1c0-4.161 3.325-7.533 7.428-7.533" fill="#FFF"/><path d="M29.113 22.399c-4.103 0-7.428 3.372-7.428 7.533h7.428v-7.533z" fill="#231F1F"/><path d="M51.984 9.811l-4.012 11.226h8.024L51.984 9.811zm7.135 20.536l-1.62-4.42H46.47l-1.62 4.42h-6.21l9.912-26.09h6.866l9.913 26.09h-6.21zm7.815-2.085c0-1.31 1.087-2.411 2.379-2.411 1.291 0 2.378 1.101 2.378 2.411 0 1.312-1.087 2.413-2.378 2.413-1.292 0-2.38-1.101-2.38-2.413m3.954-10.94c0-8.254 6.172-13.496 13.73-13.496 5.325 0 8.679 2.739 10.607 5.83l-4.512 2.502c-1.194-1.838-3.394-3.403-6.094-3.403-4.705 0-8.1 3.638-8.1 8.567 0 4.927 3.395 8.565 8.1 8.565 2.276 0 4.397-1.016 5.44-1.995v-3.128h-6.79v-4.85h12.266v10.014c-2.624 2.972-6.288 4.89-10.916 4.89-7.56 0-13.731-5.281-13.731-13.496m26.675 10.94c0-1.31 1.087-2.411 2.379-2.411s2.379 1.101 2.379 2.411c0 1.312-1.087 2.413-2.38 2.413-1.29 0-2.378-1.101-2.378-2.413m4.541-10.94c0-8.059 5.98-13.496 13.731-13.496 5.63 0 8.91 3.09 10.722 6.377l-4.706 2.346c-1.079-2.112-3.393-3.794-6.016-3.794-4.705 0-8.1 3.638-8.1 8.567 0 4.927 3.395 8.565 8.1 8.565 2.623 0 4.937-1.682 6.016-3.794l4.706 2.309c-1.813 3.245-5.091 6.416-10.722 6.416-7.752 0-13.73-5.478-13.73-13.496m39.912 3.558c0-2.933-1.696-5.475-4.783-5.475-3.047 0-4.743 2.542-4.743 5.476 0 2.973 1.696 5.515 4.743 5.515 3.087 0 4.783-2.542 4.783-5.515m-14.617 0c0-5.36 3.702-9.897 9.834-9.897 6.172 0 9.874 4.538 9.874 9.897 0 5.36-3.702 9.936-9.874 9.936-6.132 0-9.834-4.576-9.834-9.936m36.018-.001c0-2.933-1.696-5.475-4.783-5.475-3.047 0-4.743 2.542-4.743 5.476 0 2.973 1.696 5.515 4.743 5.515 3.087 0 4.783-2.542 4.783-5.515m-14.617 0c0-5.36 3.702-9.897 9.834-9.897 6.172 0 9.874 4.538 9.874 9.897 0 5.36-3.702 9.936-9.874 9.936-6.132 0-9.834-4.576-9.834-9.936m44.582 9.466v-11.93c0-1.761-.772-3.013-2.777-3.013-1.736 0-3.163 1.174-3.857 2.191v12.752h-4.937v-11.93c0-1.761-.77-3.013-2.777-3.013-1.696 0-3.123 1.174-3.856 2.191v12.752h-4.9V11.453h4.9v2.425c.81-1.094 3.239-2.894 6.094-2.894 2.737 0 4.511 1.292 5.167 3.404 1.081-1.682 3.55-3.404 6.404-3.404 3.433 0 5.477 1.839 5.477 5.711v13.652h-4.938zm17.002-3.951c2.815 0 4.704-2.23 4.704-5.515 0-3.247-1.89-5.477-4.704-5.477-1.621 0-3.396.94-4.242 2.192v6.69c.846 1.21 2.62 2.11 4.242 2.11zm-9.142 3.952V4.256h4.9v9.623c1.464-1.956 3.548-2.896 5.746-2.896 4.743 0 8.253 3.757 8.253 9.898 0 6.336-3.548 9.936-8.253 9.936-2.238 0-4.282-1.018-5.746-2.895v2.426h-4.9z" fill="#FFF"/><mask id="b" fill="#fff"><use xlink:href="#a"/></mask><path d="M220.329 27.883l2.122-3.599c1.39 1.33 4.127 2.62 6.44 2.62 2.122 0 3.125-.82 3.125-1.994 0-3.09-11.032-.547-11.032-7.98 0-3.17 2.7-5.946 7.638-5.946 3.124 0 5.632 1.095 7.482 2.583l-1.967 3.519c-1.118-1.173-3.24-2.19-5.515-2.19-1.774 0-2.932.781-2.932 1.84 0 2.776 11.069.43 11.069 8.057 0 3.481-2.93 6.024-8.099 6.024-3.24 0-6.364-1.097-8.331-2.934" fill="#FFF" mask="url(#b)"/></g></svg>